%TF.GenerationSoftware,KiCad,Pcbnew,9.0.5*%
%TF.CreationDate,2025-10-25T02:40:39-07:00*%
%TF.ProjectId,1stproject,31737470-726f-46a6-9563-742e6b696361,rev?*%
%TF.SameCoordinates,Original*%
%TF.FileFunction,Copper,L2,Bot*%
%TF.FilePolarity,Positive*%
%FSLAX46Y46*%
G04 Gerber Fmt 4.6, Leading zero omitted, Abs format (unit mm)*
G04 Created by KiCad (PCBNEW 9.0.5) date 2025-10-25 02:40:39*
%MOMM*%
%LPD*%
G01*
G04 APERTURE LIST*
%TA.AperFunction,ComponentPad*%
%ADD10C,1.300000*%
%TD*%
%TA.AperFunction,ComponentPad*%
%ADD11R,1.300000X1.300000*%
%TD*%
%TA.AperFunction,ComponentPad*%
%ADD12C,2.000000*%
%TD*%
%TA.AperFunction,ComponentPad*%
%ADD13C,1.600000*%
%TD*%
%TA.AperFunction,ComponentPad*%
%ADD14R,1.800000X1.800000*%
%TD*%
%TA.AperFunction,ComponentPad*%
%ADD15C,1.800000*%
%TD*%
%TA.AperFunction,SMDPad,CuDef*%
%ADD16R,2.500000X5.100000*%
%TD*%
%TA.AperFunction,SMDPad,CuDef*%
%ADD17C,10.200000*%
%TD*%
%TA.AperFunction,Conductor*%
%ADD18C,0.200000*%
%TD*%
G04 APERTURE END LIST*
D10*
%TO.P,Q3,3,C*%
%TO.N,Net-(D1-A)*%
X138000000Y-90115000D03*
%TO.P,Q3,2,B*%
%TO.N,Net-(Q1-C)*%
X139270000Y-88845000D03*
D11*
%TO.P,Q3,1,E*%
%TO.N,GND*%
X138000000Y-87575000D03*
%TD*%
D12*
%TO.P,SW2,1,A*%
%TO.N,GND*%
X106750000Y-91825000D03*
X113250000Y-91825000D03*
%TO.P,SW2,2,B*%
%TO.N,Net-(Q1-B)*%
X106750000Y-96325000D03*
X113250000Y-96325000D03*
%TD*%
%TO.P,SW1,1,A*%
%TO.N,GND*%
X106000000Y-79575000D03*
X112500000Y-79575000D03*
%TO.P,SW1,2,B*%
%TO.N,Net-(Q1-B)*%
X106000000Y-84075000D03*
X112500000Y-84075000D03*
%TD*%
D13*
%TO.P,R4,2*%
%TO.N,Net-(Q1-B)*%
X125500000Y-72925000D03*
%TO.P,R4,1*%
%TO.N,Net-(BT1-+)*%
X125500000Y-60225000D03*
%TD*%
%TO.P,R2,1*%
%TO.N,Net-(BT1-+)*%
X144500000Y-60225000D03*
%TO.P,R2,2*%
%TO.N,Net-(D1-A)*%
X144500000Y-72925000D03*
%TD*%
%TO.P,R3,1*%
%TO.N,Net-(BT1-+)*%
X132000000Y-60225000D03*
%TO.P,R3,2*%
%TO.N,Net-(Q1-B)*%
X132000000Y-72925000D03*
%TD*%
D11*
%TO.P,Q2,1,E*%
%TO.N,Net-(Q1-B)*%
X125090000Y-93165000D03*
D10*
%TO.P,Q2,2,B*%
X126360000Y-94435000D03*
%TO.P,Q2,3,C*%
%TO.N,Net-(Q1-C)*%
X125090000Y-95705000D03*
%TD*%
D11*
%TO.P,Q1,1,E*%
%TO.N,Net-(Q1-B)*%
X124640000Y-83230000D03*
D10*
%TO.P,Q1,2,B*%
X125910000Y-84500000D03*
%TO.P,Q1,3,C*%
%TO.N,Net-(Q1-C)*%
X124640000Y-85770000D03*
%TD*%
D14*
%TO.P,D1,1,K*%
%TO.N,GND*%
X148775000Y-89575000D03*
D15*
%TO.P,D1,2,A*%
%TO.N,Net-(D1-A)*%
X146235000Y-89575000D03*
%TD*%
D16*
%TO.P,BT1,1,+*%
%TO.N,Net-(BT1-+)*%
X117600000Y-68075000D03*
X102400000Y-68075000D03*
D17*
%TO.P,BT1,2,-*%
%TO.N,GND*%
X110000000Y-68075000D03*
%TD*%
D13*
%TO.P,R1,2*%
%TO.N,Net-(Q1-C)*%
X138500000Y-72925000D03*
%TO.P,R1,1*%
%TO.N,Net-(BT1-+)*%
X138500000Y-60225000D03*
%TD*%
D18*
%TO.N,Net-(Q1-B)*%
X128000000Y-84575000D02*
X132000000Y-80575000D01*
X125910000Y-84575000D02*
X128000000Y-84575000D01*
X132000000Y-80575000D02*
X132000000Y-72925000D01*
X124770000Y-83305000D02*
X125000000Y-83075000D01*
X124640000Y-83305000D02*
X124770000Y-83305000D01*
%TO.N,Net-(Q1-C)*%
X129230000Y-88845000D02*
X139270000Y-88845000D01*
X128500000Y-89575000D02*
X128500000Y-89075000D01*
X128500000Y-89575000D02*
X129230000Y-88845000D01*
%TO.N,Net-(BT1-+)*%
X104350000Y-60225000D02*
X120150000Y-60225000D01*
X102400000Y-62175000D02*
X104350000Y-60225000D01*
X102400000Y-68075000D02*
X102400000Y-62175000D01*
X117600000Y-62775000D02*
X120150000Y-60225000D01*
X117600000Y-68075000D02*
X117600000Y-62775000D01*
X138500000Y-60225000D02*
X144500000Y-60225000D01*
X132000000Y-60225000D02*
X138500000Y-60225000D01*
X125500000Y-60225000D02*
X132000000Y-60225000D01*
X120150000Y-60225000D02*
X125500000Y-60225000D01*
%TO.N,Net-(Q1-C)*%
X127870000Y-89075000D02*
X124640000Y-85845000D01*
X128500000Y-89075000D02*
X127870000Y-89075000D01*
X128500000Y-93639918D02*
X128500000Y-89575000D01*
X126434918Y-95705000D02*
X128500000Y-93639918D01*
X125090000Y-95705000D02*
X126434918Y-95705000D01*
%TD*%
M02*
