%TF.GenerationSoftware,KiCad,Pcbnew,9.0.5*%
%TF.CreationDate,2025-10-25T12:16:36-07:00*%
%TF.ProjectId,1stproject,31737470-726f-46a6-9563-742e6b696361,rev?*%
%TF.SameCoordinates,Original*%
%TF.FileFunction,Legend,Bot*%
%TF.FilePolarity,Positive*%
%FSLAX46Y46*%
G04 Gerber Fmt 4.6, Leading zero omitted, Abs format (unit mm)*
G04 Created by KiCad (PCBNEW 9.0.5) date 2025-10-25 12:16:36*
%MOMM*%
%LPD*%
G01*
G04 APERTURE LIST*
%ADD10C,0.150000*%
%ADD11C,0.120000*%
G04 APERTURE END LIST*
D10*
X110785714Y-74006009D02*
X110642857Y-74053628D01*
X110642857Y-74053628D02*
X110595238Y-74101247D01*
X110595238Y-74101247D02*
X110547619Y-74196485D01*
X110547619Y-74196485D02*
X110547619Y-74339342D01*
X110547619Y-74339342D02*
X110595238Y-74434580D01*
X110595238Y-74434580D02*
X110642857Y-74482200D01*
X110642857Y-74482200D02*
X110738095Y-74529819D01*
X110738095Y-74529819D02*
X111119047Y-74529819D01*
X111119047Y-74529819D02*
X111119047Y-73529819D01*
X111119047Y-73529819D02*
X110785714Y-73529819D01*
X110785714Y-73529819D02*
X110690476Y-73577438D01*
X110690476Y-73577438D02*
X110642857Y-73625057D01*
X110642857Y-73625057D02*
X110595238Y-73720295D01*
X110595238Y-73720295D02*
X110595238Y-73815533D01*
X110595238Y-73815533D02*
X110642857Y-73910771D01*
X110642857Y-73910771D02*
X110690476Y-73958390D01*
X110690476Y-73958390D02*
X110785714Y-74006009D01*
X110785714Y-74006009D02*
X111119047Y-74006009D01*
X110261904Y-73529819D02*
X109690476Y-73529819D01*
X109976190Y-74529819D02*
X109976190Y-73529819D01*
X108833333Y-74529819D02*
X109404761Y-74529819D01*
X109119047Y-74529819D02*
X109119047Y-73529819D01*
X109119047Y-73529819D02*
X109214285Y-73672676D01*
X109214285Y-73672676D02*
X109309523Y-73767914D01*
X109309523Y-73767914D02*
X109404761Y-73815533D01*
D11*
%TO.C,BT1*%
X103450000Y-70925000D02*
X104600000Y-72275000D01*
X105100000Y-63675000D02*
X103450000Y-65325000D01*
X105100000Y-63675000D02*
X107000000Y-63675000D01*
X114900000Y-63675000D02*
X113000000Y-63675000D01*
X116550000Y-65325000D02*
X114900000Y-63675000D01*
X116550000Y-70925000D02*
X115400000Y-72275000D01*
X107498306Y-72771459D02*
G75*
G02*
X104600000Y-72275000I-1098306J2296459D01*
G01*
X115400000Y-72275000D02*
G75*
G02*
X112504098Y-72772607I-1800000J1800000D01*
G01*
%TD*%
M02*
