%TF.GenerationSoftware,KiCad,Pcbnew,9.0.5*%
%TF.CreationDate,2025-10-25T12:16:36-07:00*%
%TF.ProjectId,1stproject,31737470-726f-46a6-9563-742e6b696361,rev?*%
%TF.SameCoordinates,Original*%
%TF.FileFunction,Copper,L2,Bot*%
%TF.FilePolarity,Positive*%
%FSLAX46Y46*%
G04 Gerber Fmt 4.6, Leading zero omitted, Abs format (unit mm)*
G04 Created by KiCad (PCBNEW 9.0.5) date 2025-10-25 12:16:36*
%MOMM*%
%LPD*%
G01*
G04 APERTURE LIST*
%TA.AperFunction,ComponentPad*%
%ADD10C,1.600000*%
%TD*%
%TA.AperFunction,ComponentPad*%
%ADD11R,1.300000X1.300000*%
%TD*%
%TA.AperFunction,ComponentPad*%
%ADD12C,1.300000*%
%TD*%
%TA.AperFunction,ComponentPad*%
%ADD13C,2.000000*%
%TD*%
%TA.AperFunction,ComponentPad*%
%ADD14R,1.800000X1.800000*%
%TD*%
%TA.AperFunction,ComponentPad*%
%ADD15C,1.800000*%
%TD*%
%TA.AperFunction,SMDPad,CuDef*%
%ADD16R,2.500000X5.100000*%
%TD*%
%TA.AperFunction,SMDPad,CuDef*%
%ADD17C,10.200000*%
%TD*%
%TA.AperFunction,Conductor*%
%ADD18C,0.200000*%
%TD*%
G04 APERTURE END LIST*
D10*
%TO.P,R2,1*%
%TO.N,Net-(BT1-+)*%
X144500000Y-60225000D03*
%TO.P,R2,2*%
%TO.N,Net-(D1-A)*%
X144500000Y-72925000D03*
%TD*%
%TO.P,R4,1*%
%TO.N,Net-(BT1-+)*%
X125500000Y-60225000D03*
%TO.P,R4,2*%
%TO.N,Net-(Q1-B)*%
X125500000Y-72925000D03*
%TD*%
D11*
%TO.P,Q2,1,E*%
%TO.N,Net-(Q1-B)*%
X125090000Y-93165000D03*
D12*
%TO.P,Q2,2,B*%
X126360000Y-94435000D03*
%TO.P,Q2,3,C*%
%TO.N,Net-(Q1-C)*%
X125090000Y-95705000D03*
%TD*%
D11*
%TO.P,Q1,1,E*%
%TO.N,Net-(Q1-B)*%
X124640000Y-83230000D03*
D12*
%TO.P,Q1,2,B*%
X125910000Y-84500000D03*
%TO.P,Q1,3,C*%
%TO.N,Net-(Q1-C)*%
X124640000Y-85770000D03*
%TD*%
D10*
%TO.P,R1,1*%
%TO.N,Net-(BT1-+)*%
X138500000Y-60225000D03*
%TO.P,R1,2*%
%TO.N,Net-(Q1-C)*%
X138500000Y-72925000D03*
%TD*%
D13*
%TO.P,SW2,1,A*%
%TO.N,GND*%
X106750000Y-91825000D03*
X113250000Y-91825000D03*
%TO.P,SW2,2,B*%
%TO.N,Net-(Q1-B)*%
X106750000Y-96325000D03*
X113250000Y-96325000D03*
%TD*%
%TO.P,SW1,1,A*%
%TO.N,GND*%
X106000000Y-79575000D03*
X112500000Y-79575000D03*
%TO.P,SW1,2,B*%
%TO.N,Net-(Q1-B)*%
X106000000Y-84075000D03*
X112500000Y-84075000D03*
%TD*%
D14*
%TO.P,D1,1,K*%
%TO.N,GND*%
X148775000Y-89575000D03*
D15*
%TO.P,D1,2,A*%
%TO.N,Net-(D1-A)*%
X146235000Y-89575000D03*
%TD*%
D10*
%TO.P,R3,1*%
%TO.N,Net-(BT1-+)*%
X132000000Y-60225000D03*
%TO.P,R3,2*%
%TO.N,Net-(Q1-B)*%
X132000000Y-72925000D03*
%TD*%
D11*
%TO.P,Q3,1,E*%
%TO.N,GND*%
X138000000Y-87575000D03*
D12*
%TO.P,Q3,2,B*%
%TO.N,Net-(Q1-C)*%
X139270000Y-88845000D03*
%TO.P,Q3,3,C*%
%TO.N,Net-(D1-A)*%
X138000000Y-90115000D03*
%TD*%
D16*
%TO.P,BT1,1,+*%
%TO.N,Net-(BT1-+)*%
X117600000Y-68075000D03*
X102400000Y-68075000D03*
D17*
%TO.P,BT1,2,-*%
%TO.N,GND*%
X110000000Y-68075000D03*
%TD*%
D18*
%TO.N,Net-(BT1-+)*%
X117600000Y-62775000D02*
X120150000Y-60225000D01*
X132000000Y-60225000D02*
X138500000Y-60225000D01*
X120150000Y-60225000D02*
X125500000Y-60225000D01*
X102400000Y-62175000D02*
X104350000Y-60225000D01*
X117600000Y-68075000D02*
X117600000Y-62775000D01*
X102400000Y-68075000D02*
X102400000Y-62175000D01*
X138500000Y-60225000D02*
X144500000Y-60225000D01*
X104350000Y-60225000D02*
X120150000Y-60225000D01*
X125500000Y-60225000D02*
X132000000Y-60225000D01*
%TO.N,Net-(Q1-B)*%
X124640000Y-83305000D02*
X124770000Y-83305000D01*
X125910000Y-84575000D02*
X128000000Y-84575000D01*
X128000000Y-84575000D02*
X132000000Y-80575000D01*
X132000000Y-80575000D02*
X132000000Y-72925000D01*
X124770000Y-83305000D02*
X125000000Y-83075000D01*
%TO.N,Net-(Q1-C)*%
X128500000Y-89575000D02*
X128500000Y-89075000D01*
X128500000Y-89575000D02*
X129230000Y-88845000D01*
X125090000Y-95705000D02*
X126434918Y-95705000D01*
X126434918Y-95705000D02*
X128500000Y-93639918D01*
X127870000Y-89075000D02*
X124640000Y-85845000D01*
X129230000Y-88845000D02*
X139270000Y-88845000D01*
X128500000Y-93639918D02*
X128500000Y-89575000D01*
X128500000Y-89075000D02*
X127870000Y-89075000D01*
%TD*%
%TA.AperFunction,Conductor*%
%TO.N,GND*%
G36*
X155015677Y-55019685D02*
G01*
X155036319Y-55036319D01*
X155463681Y-55463681D01*
X155497166Y-55525004D01*
X155500000Y-55551362D01*
X155500000Y-104876000D01*
X155480315Y-104943039D01*
X155427511Y-104988794D01*
X155376000Y-105000000D01*
X97624000Y-105000000D01*
X97556961Y-104980315D01*
X97511206Y-104927511D01*
X97500000Y-104876000D01*
X97500000Y-96206902D01*
X105249500Y-96206902D01*
X105249500Y-96443097D01*
X105286446Y-96676368D01*
X105359433Y-96900996D01*
X105466657Y-97111433D01*
X105605483Y-97302510D01*
X105772490Y-97469517D01*
X105963567Y-97608343D01*
X106062991Y-97659002D01*
X106174003Y-97715566D01*
X106174005Y-97715566D01*
X106174008Y-97715568D01*
X106294412Y-97754689D01*
X106398631Y-97788553D01*
X106631903Y-97825500D01*
X106631908Y-97825500D01*
X106868097Y-97825500D01*
X107101368Y-97788553D01*
X107325992Y-97715568D01*
X107536433Y-97608343D01*
X107727510Y-97469517D01*
X107894517Y-97302510D01*
X108033343Y-97111433D01*
X108140568Y-96900992D01*
X108213553Y-96676368D01*
X108228412Y-96582553D01*
X108250500Y-96443097D01*
X108250500Y-96206902D01*
X111749500Y-96206902D01*
X111749500Y-96443097D01*
X111786446Y-96676368D01*
X111859433Y-96900996D01*
X111966657Y-97111433D01*
X112105483Y-97302510D01*
X112272490Y-97469517D01*
X112463567Y-97608343D01*
X112562991Y-97659002D01*
X112674003Y-97715566D01*
X112674005Y-97715566D01*
X112674008Y-97715568D01*
X112794412Y-97754689D01*
X112898631Y-97788553D01*
X113131903Y-97825500D01*
X113131908Y-97825500D01*
X113368097Y-97825500D01*
X113601368Y-97788553D01*
X113825992Y-97715568D01*
X114036433Y-97608343D01*
X114227510Y-97469517D01*
X114394517Y-97302510D01*
X114533343Y-97111433D01*
X114640568Y-96900992D01*
X114713553Y-96676368D01*
X114728412Y-96582553D01*
X114750500Y-96443097D01*
X114750500Y-96206902D01*
X114713553Y-95973631D01*
X114640566Y-95749003D01*
X114533342Y-95538566D01*
X114394517Y-95347490D01*
X114227510Y-95180483D01*
X114036433Y-95041657D01*
X113825996Y-94934433D01*
X113601368Y-94861446D01*
X113368097Y-94824500D01*
X113368092Y-94824500D01*
X113131908Y-94824500D01*
X113131903Y-94824500D01*
X112898631Y-94861446D01*
X112674003Y-94934433D01*
X112463566Y-95041657D01*
X112380509Y-95102002D01*
X112272490Y-95180483D01*
X112272488Y-95180485D01*
X112272487Y-95180485D01*
X112105485Y-95347487D01*
X112105485Y-95347488D01*
X112105483Y-95347490D01*
X112045862Y-95429550D01*
X111966657Y-95538566D01*
X111859433Y-95749003D01*
X111786446Y-95973631D01*
X111749500Y-96206902D01*
X108250500Y-96206902D01*
X108213553Y-95973631D01*
X108140566Y-95749003D01*
X108033342Y-95538566D01*
X107894517Y-95347490D01*
X107727510Y-95180483D01*
X107536433Y-95041657D01*
X107325996Y-94934433D01*
X107101368Y-94861446D01*
X106868097Y-94824500D01*
X106868092Y-94824500D01*
X106631908Y-94824500D01*
X106631903Y-94824500D01*
X106398631Y-94861446D01*
X106174003Y-94934433D01*
X105963566Y-95041657D01*
X105880509Y-95102002D01*
X105772490Y-95180483D01*
X105772488Y-95180485D01*
X105772487Y-95180485D01*
X105605485Y-95347487D01*
X105605485Y-95347488D01*
X105605483Y-95347490D01*
X105545862Y-95429550D01*
X105466657Y-95538566D01*
X105359433Y-95749003D01*
X105286446Y-95973631D01*
X105249500Y-96206902D01*
X97500000Y-96206902D01*
X97500000Y-91706947D01*
X105250000Y-91706947D01*
X105250000Y-91943052D01*
X105286934Y-92176247D01*
X105359897Y-92400802D01*
X105467087Y-92611174D01*
X105527338Y-92694104D01*
X105527340Y-92694105D01*
X106226212Y-91995233D01*
X106237482Y-92037292D01*
X106309890Y-92162708D01*
X106412292Y-92265110D01*
X106537708Y-92337518D01*
X106579765Y-92348787D01*
X105880893Y-93047658D01*
X105963828Y-93107914D01*
X106174197Y-93215102D01*
X106398752Y-93288065D01*
X106398751Y-93288065D01*
X106631948Y-93325000D01*
X106868052Y-93325000D01*
X107101247Y-93288065D01*
X107325802Y-93215102D01*
X107536163Y-93107918D01*
X107536169Y-93107914D01*
X107619104Y-93047658D01*
X107619105Y-93047658D01*
X106920233Y-92348787D01*
X106962292Y-92337518D01*
X107087708Y-92265110D01*
X107190110Y-92162708D01*
X107262518Y-92037292D01*
X107273787Y-91995234D01*
X107972658Y-92694105D01*
X107972658Y-92694104D01*
X108032914Y-92611169D01*
X108032918Y-92611163D01*
X108140102Y-92400802D01*
X108213065Y-92176247D01*
X108250000Y-91943052D01*
X108250000Y-91706947D01*
X111750000Y-91706947D01*
X111750000Y-91943052D01*
X111786934Y-92176247D01*
X111859897Y-92400802D01*
X111967087Y-92611174D01*
X112027338Y-92694104D01*
X112027340Y-92694105D01*
X112726212Y-91995233D01*
X112737482Y-92037292D01*
X112809890Y-92162708D01*
X112912292Y-92265110D01*
X113037708Y-92337518D01*
X113079765Y-92348787D01*
X112380893Y-93047658D01*
X112463828Y-93107914D01*
X112674197Y-93215102D01*
X112898752Y-93288065D01*
X112898751Y-93288065D01*
X113131948Y-93325000D01*
X113368052Y-93325000D01*
X113601247Y-93288065D01*
X113825802Y-93215102D01*
X114036163Y-93107918D01*
X114036169Y-93107914D01*
X114119104Y-93047658D01*
X114119105Y-93047658D01*
X113420233Y-92348787D01*
X113462292Y-92337518D01*
X113587708Y-92265110D01*
X113690110Y-92162708D01*
X113762518Y-92037292D01*
X113773787Y-91995234D01*
X114472658Y-92694105D01*
X114472658Y-92694104D01*
X114532914Y-92611169D01*
X114532918Y-92611163D01*
X114640102Y-92400802D01*
X114713065Y-92176247D01*
X114750000Y-91943052D01*
X114750000Y-91706947D01*
X114713065Y-91473752D01*
X114640102Y-91249197D01*
X114532914Y-91038828D01*
X114472658Y-90955894D01*
X114472658Y-90955893D01*
X113773787Y-91654765D01*
X113762518Y-91612708D01*
X113690110Y-91487292D01*
X113587708Y-91384890D01*
X113462292Y-91312482D01*
X113420234Y-91301212D01*
X114119105Y-90602340D01*
X114119104Y-90602338D01*
X114036174Y-90542087D01*
X113825802Y-90434897D01*
X113601247Y-90361934D01*
X113601248Y-90361934D01*
X113368052Y-90325000D01*
X113131948Y-90325000D01*
X112898752Y-90361934D01*
X112674197Y-90434897D01*
X112463830Y-90542084D01*
X112380894Y-90602340D01*
X113079766Y-91301212D01*
X113037708Y-91312482D01*
X112912292Y-91384890D01*
X112809890Y-91487292D01*
X112737482Y-91612708D01*
X112726212Y-91654766D01*
X112027340Y-90955894D01*
X111967084Y-91038830D01*
X111859897Y-91249197D01*
X111786934Y-91473752D01*
X111750000Y-91706947D01*
X108250000Y-91706947D01*
X108213065Y-91473752D01*
X108140102Y-91249197D01*
X108032914Y-91038828D01*
X107972658Y-90955894D01*
X107972658Y-90955893D01*
X107273787Y-91654765D01*
X107262518Y-91612708D01*
X107190110Y-91487292D01*
X107087708Y-91384890D01*
X106962292Y-91312482D01*
X106920234Y-91301212D01*
X107619105Y-90602340D01*
X107619104Y-90602339D01*
X107536174Y-90542087D01*
X107325802Y-90434897D01*
X107101247Y-90361934D01*
X107101248Y-90361934D01*
X106868052Y-90325000D01*
X106631948Y-90325000D01*
X106398752Y-90361934D01*
X106174197Y-90434897D01*
X105963830Y-90542084D01*
X105880894Y-90602340D01*
X106579766Y-91301212D01*
X106537708Y-91312482D01*
X106412292Y-91384890D01*
X106309890Y-91487292D01*
X106237482Y-91612708D01*
X106226212Y-91654766D01*
X105527340Y-90955894D01*
X105467084Y-91038830D01*
X105359897Y-91249197D01*
X105286934Y-91473752D01*
X105250000Y-91706947D01*
X97500000Y-91706947D01*
X97500000Y-83956902D01*
X104499500Y-83956902D01*
X104499500Y-84193097D01*
X104536446Y-84426368D01*
X104609433Y-84650996D01*
X104636333Y-84703789D01*
X104716657Y-84861433D01*
X104855483Y-85052510D01*
X105022490Y-85219517D01*
X105213567Y-85358343D01*
X105251269Y-85377553D01*
X105424003Y-85465566D01*
X105424005Y-85465566D01*
X105424008Y-85465568D01*
X105531791Y-85500589D01*
X105648631Y-85538553D01*
X105881903Y-85575500D01*
X105881908Y-85575500D01*
X106118097Y-85575500D01*
X106351368Y-85538553D01*
X106575992Y-85465568D01*
X106786433Y-85358343D01*
X106977510Y-85219517D01*
X107144517Y-85052510D01*
X107283343Y-84861433D01*
X107390568Y-84650992D01*
X107463553Y-84426368D01*
X107479799Y-84323796D01*
X107500500Y-84193097D01*
X107500500Y-83956902D01*
X110999500Y-83956902D01*
X110999500Y-84193097D01*
X111036446Y-84426368D01*
X111109433Y-84650996D01*
X111136333Y-84703789D01*
X111216657Y-84861433D01*
X111355483Y-85052510D01*
X111522490Y-85219517D01*
X111713567Y-85358343D01*
X111751269Y-85377553D01*
X111924003Y-85465566D01*
X111924005Y-85465566D01*
X111924008Y-85465568D01*
X112031791Y-85500589D01*
X112148631Y-85538553D01*
X112381903Y-85575500D01*
X112381908Y-85575500D01*
X112618097Y-85575500D01*
X112851368Y-85538553D01*
X113075992Y-85465568D01*
X113286433Y-85358343D01*
X113477510Y-85219517D01*
X113644517Y-85052510D01*
X113783343Y-84861433D01*
X113890568Y-84650992D01*
X113963553Y-84426368D01*
X113979799Y-84323796D01*
X114000500Y-84193097D01*
X114000500Y-83956902D01*
X113963553Y-83723631D01*
X113890566Y-83499003D01*
X113783342Y-83288566D01*
X113774947Y-83277011D01*
X113644517Y-83097490D01*
X113477510Y-82930483D01*
X113286433Y-82791657D01*
X113075996Y-82684433D01*
X112959979Y-82646737D01*
X112851368Y-82611446D01*
X112618097Y-82574500D01*
X112618092Y-82574500D01*
X112381908Y-82574500D01*
X112381903Y-82574500D01*
X112148631Y-82611446D01*
X111924003Y-82684433D01*
X111713566Y-82791657D01*
X111604550Y-82870862D01*
X111522490Y-82930483D01*
X111522488Y-82930485D01*
X111522487Y-82930485D01*
X111355485Y-83097487D01*
X111355485Y-83097488D01*
X111355483Y-83097490D01*
X111295862Y-83179550D01*
X111216657Y-83288566D01*
X111109433Y-83499003D01*
X111036446Y-83723631D01*
X110999500Y-83956902D01*
X107500500Y-83956902D01*
X107463553Y-83723631D01*
X107390566Y-83499003D01*
X107283342Y-83288566D01*
X107274947Y-83277011D01*
X107144517Y-83097490D01*
X106977510Y-82930483D01*
X106786433Y-82791657D01*
X106575996Y-82684433D01*
X106351368Y-82611446D01*
X106118097Y-82574500D01*
X106118092Y-82574500D01*
X105881908Y-82574500D01*
X105881903Y-82574500D01*
X105648631Y-82611446D01*
X105424003Y-82684433D01*
X105213566Y-82791657D01*
X105104550Y-82870862D01*
X105022490Y-82930483D01*
X105022488Y-82930485D01*
X105022487Y-82930485D01*
X104855485Y-83097487D01*
X104855485Y-83097488D01*
X104855483Y-83097490D01*
X104795862Y-83179550D01*
X104716657Y-83288566D01*
X104609433Y-83499003D01*
X104536446Y-83723631D01*
X104499500Y-83956902D01*
X97500000Y-83956902D01*
X97500000Y-82532135D01*
X123489500Y-82532135D01*
X123489500Y-83927870D01*
X123489501Y-83927876D01*
X123495908Y-83987483D01*
X123546202Y-84122328D01*
X123546206Y-84122335D01*
X123632452Y-84237544D01*
X123632455Y-84237547D01*
X123747664Y-84323793D01*
X123747671Y-84323797D01*
X123882517Y-84374091D01*
X123882516Y-84374091D01*
X123889444Y-84374835D01*
X123942127Y-84380500D01*
X124482874Y-84380499D01*
X124549912Y-84400183D01*
X124595667Y-84452987D01*
X124605611Y-84522146D01*
X124576586Y-84585702D01*
X124517808Y-84623476D01*
X124502272Y-84626972D01*
X124370589Y-84647829D01*
X124198363Y-84703787D01*
X124198360Y-84703788D01*
X124037002Y-84786006D01*
X123890505Y-84892441D01*
X123890500Y-84892445D01*
X123762445Y-85020500D01*
X123762441Y-85020505D01*
X123656006Y-85167002D01*
X123573788Y-85328360D01*
X123573787Y-85328363D01*
X123517829Y-85500589D01*
X123489500Y-85679448D01*
X123489500Y-85860551D01*
X123517829Y-86039410D01*
X123573787Y-86211636D01*
X123573788Y-86211639D01*
X123656006Y-86372997D01*
X123762441Y-86519494D01*
X123762445Y-86519499D01*
X123890500Y-86647554D01*
X123890505Y-86647558D01*
X123939158Y-86682906D01*
X124037006Y-86753996D01*
X124142484Y-86807740D01*
X124198360Y-86836211D01*
X124198363Y-86836212D01*
X124284476Y-86864191D01*
X124370591Y-86892171D01*
X124453429Y-86905291D01*
X124549449Y-86920500D01*
X124549454Y-86920500D01*
X124730543Y-86920500D01*
X124730546Y-86920500D01*
X124785306Y-86911826D01*
X124854596Y-86920780D01*
X124892383Y-86946618D01*
X127385139Y-89439374D01*
X127385149Y-89439385D01*
X127389479Y-89443715D01*
X127389480Y-89443716D01*
X127501284Y-89555520D01*
X127501286Y-89555521D01*
X127501290Y-89555524D01*
X127568797Y-89594499D01*
X127568801Y-89594500D01*
X127568802Y-89594501D01*
X127638215Y-89634577D01*
X127790943Y-89675501D01*
X127790950Y-89675501D01*
X127791678Y-89675597D01*
X127792252Y-89675851D01*
X127798794Y-89677604D01*
X127798520Y-89678623D01*
X127855576Y-89703860D01*
X127894051Y-89762182D01*
X127899500Y-89798537D01*
X127899500Y-93339820D01*
X127879815Y-93406859D01*
X127863181Y-93427501D01*
X127494916Y-93795766D01*
X127433593Y-93829251D01*
X127363901Y-93824267D01*
X127307968Y-93782395D01*
X127306917Y-93780970D01*
X127237558Y-93685504D01*
X127109499Y-93557445D01*
X127109494Y-93557441D01*
X126962997Y-93451006D01*
X126962996Y-93451005D01*
X126962994Y-93451004D01*
X126911300Y-93424664D01*
X126801639Y-93368788D01*
X126801636Y-93368787D01*
X126629410Y-93312829D01*
X126450551Y-93284500D01*
X126450546Y-93284500D01*
X126364499Y-93284500D01*
X126297460Y-93264815D01*
X126251705Y-93212011D01*
X126240499Y-93160500D01*
X126240499Y-92467129D01*
X126240498Y-92467123D01*
X126240497Y-92467116D01*
X126234091Y-92407517D01*
X126231586Y-92400802D01*
X126183797Y-92272671D01*
X126183793Y-92272664D01*
X126097547Y-92157455D01*
X126097544Y-92157452D01*
X125982335Y-92071206D01*
X125982328Y-92071202D01*
X125847482Y-92020908D01*
X125847483Y-92020908D01*
X125787883Y-92014501D01*
X125787881Y-92014500D01*
X125787873Y-92014500D01*
X125787864Y-92014500D01*
X124392129Y-92014500D01*
X124392123Y-92014501D01*
X124332516Y-92020908D01*
X124197671Y-92071202D01*
X124197664Y-92071206D01*
X124082455Y-92157452D01*
X124082452Y-92157455D01*
X123996206Y-92272664D01*
X123996202Y-92272671D01*
X123945908Y-92407517D01*
X123939501Y-92467116D01*
X123939501Y-92467123D01*
X123939500Y-92467135D01*
X123939500Y-93862870D01*
X123939501Y-93862876D01*
X123945908Y-93922483D01*
X123996202Y-94057328D01*
X123996206Y-94057335D01*
X124082452Y-94172544D01*
X124082455Y-94172547D01*
X124197664Y-94258793D01*
X124197671Y-94258797D01*
X124332517Y-94309091D01*
X124332516Y-94309091D01*
X124339444Y-94309835D01*
X124392127Y-94315500D01*
X124932874Y-94315499D01*
X124999912Y-94335183D01*
X125045667Y-94387987D01*
X125055611Y-94457146D01*
X125026586Y-94520702D01*
X124967808Y-94558476D01*
X124952272Y-94561972D01*
X124820589Y-94582829D01*
X124648363Y-94638787D01*
X124648360Y-94638788D01*
X124487002Y-94721006D01*
X124340505Y-94827441D01*
X124340500Y-94827445D01*
X124212445Y-94955500D01*
X124212441Y-94955505D01*
X124106006Y-95102002D01*
X124023788Y-95263360D01*
X124023787Y-95263363D01*
X123967829Y-95435589D01*
X123939500Y-95614448D01*
X123939500Y-95795551D01*
X123967829Y-95974410D01*
X124023787Y-96146636D01*
X124023788Y-96146639D01*
X124079664Y-96256300D01*
X124104733Y-96305500D01*
X124106006Y-96307997D01*
X124212441Y-96454494D01*
X124212445Y-96454499D01*
X124340500Y-96582554D01*
X124340505Y-96582558D01*
X124468287Y-96675396D01*
X124487006Y-96688996D01*
X124592484Y-96742740D01*
X124648360Y-96771211D01*
X124648363Y-96771212D01*
X124734476Y-96799191D01*
X124820591Y-96827171D01*
X124903429Y-96840291D01*
X124999449Y-96855500D01*
X124999454Y-96855500D01*
X125180551Y-96855500D01*
X125267259Y-96841765D01*
X125359409Y-96827171D01*
X125531639Y-96771211D01*
X125692994Y-96688996D01*
X125839501Y-96582553D01*
X125967553Y-96454501D01*
X125975839Y-96443097D01*
X126038670Y-96356616D01*
X126043002Y-96353274D01*
X126045276Y-96348297D01*
X126070375Y-96332166D01*
X126094000Y-96313949D01*
X126100673Y-96312695D01*
X126104054Y-96310523D01*
X126138989Y-96305500D01*
X126348249Y-96305500D01*
X126348265Y-96305501D01*
X126355861Y-96305501D01*
X126513972Y-96305501D01*
X126513975Y-96305501D01*
X126666703Y-96264577D01*
X126716822Y-96235639D01*
X126803634Y-96185520D01*
X126915438Y-96073716D01*
X126915438Y-96073714D01*
X126925646Y-96063507D01*
X126925648Y-96063504D01*
X128868713Y-94120439D01*
X128868716Y-94120438D01*
X128980520Y-94008634D01*
X129030639Y-93921822D01*
X129059577Y-93871703D01*
X129100501Y-93718975D01*
X129100501Y-93560861D01*
X129100501Y-93553266D01*
X129100500Y-93553248D01*
X129100500Y-89875097D01*
X129120185Y-89808058D01*
X129136819Y-89787416D01*
X129442416Y-89481819D01*
X129503739Y-89448334D01*
X129530097Y-89445500D01*
X136847540Y-89445500D01*
X136914579Y-89465185D01*
X136960334Y-89517989D01*
X136970278Y-89587147D01*
X136958025Y-89625795D01*
X136933788Y-89673360D01*
X136933787Y-89673363D01*
X136877829Y-89845589D01*
X136849500Y-90024448D01*
X136849500Y-90205551D01*
X136877829Y-90384410D01*
X136933787Y-90556636D01*
X136933788Y-90556639D01*
X136977916Y-90643242D01*
X137015541Y-90717086D01*
X137016006Y-90717997D01*
X137122441Y-90864494D01*
X137122445Y-90864499D01*
X137250500Y-90992554D01*
X137250505Y-90992558D01*
X137314191Y-91038828D01*
X137397006Y-91098996D01*
X137502484Y-91152740D01*
X137558360Y-91181211D01*
X137558363Y-91181212D01*
X137644476Y-91209191D01*
X137730591Y-91237171D01*
X137813429Y-91250291D01*
X137909449Y-91265500D01*
X137909454Y-91265500D01*
X138090551Y-91265500D01*
X138177259Y-91251765D01*
X138269409Y-91237171D01*
X138441639Y-91181211D01*
X138602994Y-91098996D01*
X138749501Y-90992553D01*
X138877553Y-90864501D01*
X138983996Y-90717994D01*
X139066211Y-90556639D01*
X139122171Y-90384409D01*
X139136765Y-90292259D01*
X139150500Y-90205551D01*
X139150500Y-90119500D01*
X139170185Y-90052461D01*
X139222989Y-90006706D01*
X139274500Y-89995500D01*
X139360551Y-89995500D01*
X139447259Y-89981765D01*
X139539409Y-89967171D01*
X139711639Y-89911211D01*
X139872994Y-89828996D01*
X140019501Y-89722553D01*
X140147553Y-89594501D01*
X140241802Y-89464778D01*
X144834500Y-89464778D01*
X144834500Y-89685222D01*
X144844553Y-89748694D01*
X144868985Y-89902952D01*
X144937103Y-90112603D01*
X144937104Y-90112606D01*
X145037187Y-90309025D01*
X145166752Y-90487358D01*
X145166756Y-90487363D01*
X145322636Y-90643243D01*
X145322641Y-90643247D01*
X145425523Y-90717994D01*
X145500978Y-90772815D01*
X145617501Y-90832187D01*
X145697393Y-90872895D01*
X145697396Y-90872896D01*
X145802221Y-90906955D01*
X145907049Y-90941015D01*
X146124778Y-90975500D01*
X146124779Y-90975500D01*
X146345221Y-90975500D01*
X146345222Y-90975500D01*
X146562951Y-90941015D01*
X146772606Y-90872895D01*
X146969022Y-90772815D01*
X147147365Y-90643242D01*
X147197924Y-90592682D01*
X147259245Y-90559198D01*
X147328936Y-90564182D01*
X147384870Y-90606053D01*
X147401786Y-90637030D01*
X147431646Y-90717087D01*
X147431649Y-90717093D01*
X147517809Y-90832187D01*
X147517812Y-90832190D01*
X147632906Y-90918350D01*
X147632913Y-90918354D01*
X147767620Y-90968596D01*
X147767627Y-90968598D01*
X147827155Y-90974999D01*
X147827172Y-90975000D01*
X148525000Y-90975000D01*
X148525000Y-89950277D01*
X148601306Y-89994333D01*
X148715756Y-90025000D01*
X148834244Y-90025000D01*
X148948694Y-89994333D01*
X149025000Y-89950277D01*
X149025000Y-90975000D01*
X149722828Y-90975000D01*
X149722844Y-90974999D01*
X149782372Y-90968598D01*
X149782379Y-90968596D01*
X149917086Y-90918354D01*
X149917093Y-90918350D01*
X150032187Y-90832190D01*
X150032190Y-90832187D01*
X150118350Y-90717093D01*
X150118354Y-90717086D01*
X150168596Y-90582379D01*
X150168598Y-90582372D01*
X150174999Y-90522844D01*
X150175000Y-90522827D01*
X150175000Y-89825000D01*
X149150278Y-89825000D01*
X149194333Y-89748694D01*
X149225000Y-89634244D01*
X149225000Y-89515756D01*
X149194333Y-89401306D01*
X149150278Y-89325000D01*
X150175000Y-89325000D01*
X150175000Y-88627172D01*
X150174999Y-88627155D01*
X150168598Y-88567627D01*
X150168596Y-88567620D01*
X150118354Y-88432913D01*
X150118350Y-88432906D01*
X150032190Y-88317812D01*
X150032187Y-88317809D01*
X149917093Y-88231649D01*
X149917086Y-88231645D01*
X149782379Y-88181403D01*
X149782372Y-88181401D01*
X149722844Y-88175000D01*
X149025000Y-88175000D01*
X149025000Y-89199722D01*
X148948694Y-89155667D01*
X148834244Y-89125000D01*
X148715756Y-89125000D01*
X148601306Y-89155667D01*
X148525000Y-89199722D01*
X148525000Y-88175000D01*
X147827155Y-88175000D01*
X147767627Y-88181401D01*
X147767620Y-88181403D01*
X147632913Y-88231645D01*
X147632906Y-88231649D01*
X147517812Y-88317809D01*
X147517809Y-88317812D01*
X147431649Y-88432906D01*
X147431643Y-88432918D01*
X147401785Y-88512969D01*
X147359914Y-88568903D01*
X147294449Y-88593319D01*
X147226176Y-88578467D01*
X147197923Y-88557316D01*
X147147363Y-88506756D01*
X147147358Y-88506752D01*
X146969025Y-88377187D01*
X146969024Y-88377186D01*
X146969022Y-88377185D01*
X146906096Y-88345122D01*
X146772606Y-88277104D01*
X146772603Y-88277103D01*
X146562952Y-88208985D01*
X146454086Y-88191742D01*
X146345222Y-88174500D01*
X146124778Y-88174500D01*
X146052201Y-88185995D01*
X145907047Y-88208985D01*
X145697396Y-88277103D01*
X145697393Y-88277104D01*
X145500974Y-88377187D01*
X145322641Y-88506752D01*
X145322636Y-88506756D01*
X145166756Y-88662636D01*
X145166752Y-88662641D01*
X145037187Y-88840974D01*
X144937104Y-89037393D01*
X144937103Y-89037396D01*
X144868985Y-89247047D01*
X144860805Y-89298694D01*
X144834500Y-89464778D01*
X140241802Y-89464778D01*
X140253996Y-89447994D01*
X140330069Y-89298694D01*
X140336209Y-89286644D01*
X140336212Y-89286636D01*
X140359517Y-89214910D01*
X140392171Y-89114409D01*
X140406765Y-89022259D01*
X140420500Y-88935551D01*
X140420500Y-88754448D01*
X140404019Y-88650397D01*
X140392171Y-88575591D01*
X140347525Y-88438181D01*
X140336212Y-88403363D01*
X140336211Y-88403360D01*
X140276119Y-88285425D01*
X140253996Y-88242006D01*
X140205314Y-88175000D01*
X140147558Y-88095505D01*
X140147554Y-88095500D01*
X140019499Y-87967445D01*
X140019494Y-87967441D01*
X139872997Y-87861006D01*
X139872996Y-87861005D01*
X139872994Y-87861004D01*
X139802333Y-87825000D01*
X139711639Y-87778788D01*
X139711636Y-87778787D01*
X139539410Y-87722829D01*
X139360551Y-87694500D01*
X139360546Y-87694500D01*
X139179454Y-87694500D01*
X139179449Y-87694500D01*
X139000589Y-87722829D01*
X138828363Y-87778787D01*
X138828360Y-87778788D01*
X138764192Y-87811485D01*
X138707897Y-87825000D01*
X138280330Y-87825000D01*
X138300075Y-87805255D01*
X138349444Y-87719745D01*
X138375000Y-87624370D01*
X138375000Y-87525630D01*
X138349444Y-87430255D01*
X138300075Y-87344745D01*
X138280330Y-87325000D01*
X139150000Y-87325000D01*
X139150000Y-86877172D01*
X139149999Y-86877155D01*
X139143598Y-86817627D01*
X139143596Y-86817620D01*
X139093354Y-86682913D01*
X139093350Y-86682906D01*
X139007190Y-86567812D01*
X139007187Y-86567809D01*
X138892093Y-86481649D01*
X138892086Y-86481645D01*
X138757379Y-86431403D01*
X138757372Y-86431401D01*
X138697844Y-86425000D01*
X138250000Y-86425000D01*
X138250000Y-87294670D01*
X138230255Y-87274925D01*
X138144745Y-87225556D01*
X138049370Y-87200000D01*
X137950630Y-87200000D01*
X137855255Y-87225556D01*
X137769745Y-87274925D01*
X137750000Y-87294670D01*
X137750000Y-86425000D01*
X137302155Y-86425000D01*
X137242627Y-86431401D01*
X137242620Y-86431403D01*
X137107913Y-86481645D01*
X137107906Y-86481649D01*
X136992812Y-86567809D01*
X136992809Y-86567812D01*
X136906649Y-86682906D01*
X136906645Y-86682913D01*
X136856403Y-86817620D01*
X136856401Y-86817627D01*
X136850000Y-86877155D01*
X136850000Y-87325000D01*
X137719670Y-87325000D01*
X137699925Y-87344745D01*
X137650556Y-87430255D01*
X137625000Y-87525630D01*
X137625000Y-87624370D01*
X137650556Y-87719745D01*
X137699925Y-87805255D01*
X137719670Y-87825000D01*
X136850000Y-87825000D01*
X136850000Y-88120500D01*
X136830315Y-88187539D01*
X136777511Y-88233294D01*
X136726000Y-88244500D01*
X129316669Y-88244500D01*
X129316653Y-88244499D01*
X129309057Y-88244499D01*
X129150943Y-88244499D01*
X129043587Y-88273265D01*
X128998210Y-88285424D01*
X128998209Y-88285425D01*
X128948096Y-88314359D01*
X128948095Y-88314360D01*
X128942116Y-88317812D01*
X128861286Y-88364478D01*
X128765495Y-88460269D01*
X128704171Y-88493753D01*
X128645722Y-88492362D01*
X128579058Y-88474500D01*
X128579057Y-88474500D01*
X128170097Y-88474500D01*
X128103058Y-88454815D01*
X128082416Y-88438181D01*
X125796072Y-86151837D01*
X125762587Y-86090514D01*
X125763082Y-86044486D01*
X125761409Y-86044221D01*
X125790500Y-85860551D01*
X125790500Y-85774500D01*
X125810185Y-85707461D01*
X125862989Y-85661706D01*
X125914500Y-85650500D01*
X126000551Y-85650500D01*
X126087259Y-85636765D01*
X126179409Y-85622171D01*
X126351639Y-85566211D01*
X126512994Y-85483996D01*
X126659501Y-85377553D01*
X126787553Y-85249501D01*
X126804181Y-85226613D01*
X126859512Y-85183949D01*
X126904499Y-85175500D01*
X127913331Y-85175500D01*
X127913347Y-85175501D01*
X127920943Y-85175501D01*
X128079054Y-85175501D01*
X128079057Y-85175501D01*
X128231785Y-85134577D01*
X128309072Y-85089955D01*
X128368716Y-85055520D01*
X128480520Y-84943716D01*
X128480520Y-84943714D01*
X128490724Y-84933511D01*
X128490728Y-84933506D01*
X132368713Y-81055521D01*
X132368716Y-81055520D01*
X132480520Y-80943716D01*
X132530639Y-80856904D01*
X132559577Y-80806785D01*
X132600500Y-80654058D01*
X132600500Y-80495943D01*
X132600500Y-74154601D01*
X132620185Y-74087562D01*
X132668206Y-74044116D01*
X132681610Y-74037287D01*
X132847219Y-73916966D01*
X132991966Y-73772219D01*
X132991968Y-73772215D01*
X132991971Y-73772213D01*
X133087684Y-73640473D01*
X133112287Y-73606610D01*
X133205220Y-73424219D01*
X133268477Y-73229534D01*
X133300500Y-73027352D01*
X133300500Y-72822648D01*
X137199500Y-72822648D01*
X137199500Y-73027351D01*
X137231522Y-73229534D01*
X137294781Y-73424223D01*
X137387715Y-73606613D01*
X137508028Y-73772213D01*
X137652786Y-73916971D01*
X137807749Y-74029556D01*
X137818390Y-74037287D01*
X137899499Y-74078614D01*
X138000776Y-74130218D01*
X138000778Y-74130218D01*
X138000781Y-74130220D01*
X138075818Y-74154601D01*
X138195465Y-74193477D01*
X138296557Y-74209488D01*
X138397648Y-74225500D01*
X138397649Y-74225500D01*
X138602351Y-74225500D01*
X138602352Y-74225500D01*
X138804534Y-74193477D01*
X138999219Y-74130220D01*
X139181610Y-74037287D01*
X139274590Y-73969732D01*
X139347213Y-73916971D01*
X139347215Y-73916968D01*
X139347219Y-73916966D01*
X139491966Y-73772219D01*
X139491968Y-73772215D01*
X139491971Y-73772213D01*
X139587684Y-73640473D01*
X139612287Y-73606610D01*
X139705220Y-73424219D01*
X139768477Y-73229534D01*
X139800500Y-73027352D01*
X139800500Y-72822648D01*
X143199500Y-72822648D01*
X143199500Y-73027351D01*
X143231522Y-73229534D01*
X143294781Y-73424223D01*
X143387715Y-73606613D01*
X143508028Y-73772213D01*
X143652786Y-73916971D01*
X143807749Y-74029556D01*
X143818390Y-74037287D01*
X143899499Y-74078614D01*
X144000776Y-74130218D01*
X144000778Y-74130218D01*
X144000781Y-74130220D01*
X144075818Y-74154601D01*
X144195465Y-74193477D01*
X144296557Y-74209488D01*
X144397648Y-74225500D01*
X144397649Y-74225500D01*
X144602351Y-74225500D01*
X144602352Y-74225500D01*
X144804534Y-74193477D01*
X144999219Y-74130220D01*
X145181610Y-74037287D01*
X145274590Y-73969732D01*
X145347213Y-73916971D01*
X145347215Y-73916968D01*
X145347219Y-73916966D01*
X145491966Y-73772219D01*
X145491968Y-73772215D01*
X145491971Y-73772213D01*
X145587684Y-73640473D01*
X145612287Y-73606610D01*
X145705220Y-73424219D01*
X145768477Y-73229534D01*
X145800500Y-73027352D01*
X145800500Y-72822648D01*
X145768477Y-72620465D01*
X145705218Y-72425776D01*
X145671503Y-72359607D01*
X145612287Y-72243390D01*
X145587959Y-72209905D01*
X145491971Y-72077786D01*
X145347213Y-71933028D01*
X145181613Y-71812715D01*
X145181612Y-71812714D01*
X145181610Y-71812713D01*
X145124653Y-71783691D01*
X144999223Y-71719781D01*
X144804534Y-71656522D01*
X144629995Y-71628878D01*
X144602352Y-71624500D01*
X144397648Y-71624500D01*
X144373329Y-71628351D01*
X144195465Y-71656522D01*
X144000776Y-71719781D01*
X143818386Y-71812715D01*
X143652786Y-71933028D01*
X143508028Y-72077786D01*
X143387715Y-72243386D01*
X143294781Y-72425776D01*
X143231522Y-72620465D01*
X143199500Y-72822648D01*
X139800500Y-72822648D01*
X139768477Y-72620465D01*
X139705218Y-72425776D01*
X139671503Y-72359607D01*
X139612287Y-72243390D01*
X139587959Y-72209905D01*
X139491971Y-72077786D01*
X139347213Y-71933028D01*
X139181613Y-71812715D01*
X139181612Y-71812714D01*
X139181610Y-71812713D01*
X139124653Y-71783691D01*
X138999223Y-71719781D01*
X138804534Y-71656522D01*
X138629995Y-71628878D01*
X138602352Y-71624500D01*
X138397648Y-71624500D01*
X138373329Y-71628351D01*
X138195465Y-71656522D01*
X138000776Y-71719781D01*
X137818386Y-71812715D01*
X137652786Y-71933028D01*
X137508028Y-72077786D01*
X137387715Y-72243386D01*
X137294781Y-72425776D01*
X137231522Y-72620465D01*
X137199500Y-72822648D01*
X133300500Y-72822648D01*
X133268477Y-72620465D01*
X133205218Y-72425776D01*
X133171503Y-72359607D01*
X133112287Y-72243390D01*
X133087959Y-72209905D01*
X132991971Y-72077786D01*
X132847213Y-71933028D01*
X132681613Y-71812715D01*
X132681612Y-71812714D01*
X132681610Y-71812713D01*
X132624653Y-71783691D01*
X132499223Y-71719781D01*
X132304534Y-71656522D01*
X132129995Y-71628878D01*
X132102352Y-71624500D01*
X131897648Y-71624500D01*
X131873329Y-71628351D01*
X131695465Y-71656522D01*
X131500776Y-71719781D01*
X131318386Y-71812715D01*
X131152786Y-71933028D01*
X131008028Y-72077786D01*
X130887715Y-72243386D01*
X130794781Y-72425776D01*
X130731522Y-72620465D01*
X130699500Y-72822648D01*
X130699500Y-73027351D01*
X130731522Y-73229534D01*
X130794781Y-73424223D01*
X130887715Y-73606613D01*
X131008028Y-73772213D01*
X131008034Y-73772219D01*
X131152781Y-73916966D01*
X131318390Y-74037287D01*
X131331793Y-74044116D01*
X131382589Y-74092088D01*
X131399500Y-74154601D01*
X131399500Y-80274903D01*
X131379815Y-80341942D01*
X131363181Y-80362584D01*
X127787584Y-83938181D01*
X127726261Y-83971666D01*
X127699903Y-83974500D01*
X127009469Y-83974500D01*
X126942430Y-83954815D01*
X126898985Y-83906797D01*
X126893994Y-83897002D01*
X126787558Y-83750505D01*
X126787554Y-83750500D01*
X126659499Y-83622445D01*
X126659494Y-83622441D01*
X126512997Y-83516006D01*
X126512996Y-83516005D01*
X126512994Y-83516004D01*
X126461300Y-83489664D01*
X126351639Y-83433788D01*
X126351636Y-83433787D01*
X126179410Y-83377829D01*
X126000551Y-83349500D01*
X126000546Y-83349500D01*
X125914499Y-83349500D01*
X125847460Y-83329815D01*
X125801705Y-83277011D01*
X125790499Y-83225500D01*
X125790499Y-82532129D01*
X125790498Y-82532123D01*
X125790497Y-82532116D01*
X125784091Y-82472517D01*
X125733796Y-82337669D01*
X125733795Y-82337668D01*
X125733793Y-82337664D01*
X125647547Y-82222455D01*
X125647544Y-82222452D01*
X125532335Y-82136206D01*
X125532328Y-82136202D01*
X125397482Y-82085908D01*
X125397483Y-82085908D01*
X125337883Y-82079501D01*
X125337881Y-82079500D01*
X125337873Y-82079500D01*
X125337864Y-82079500D01*
X123942129Y-82079500D01*
X123942123Y-82079501D01*
X123882516Y-82085908D01*
X123747671Y-82136202D01*
X123747664Y-82136206D01*
X123632455Y-82222452D01*
X123632452Y-82222455D01*
X123546206Y-82337664D01*
X123546202Y-82337671D01*
X123495908Y-82472517D01*
X123489501Y-82532116D01*
X123489501Y-82532123D01*
X123489500Y-82532135D01*
X97500000Y-82532135D01*
X97500000Y-79456947D01*
X104500000Y-79456947D01*
X104500000Y-79693052D01*
X104536934Y-79926247D01*
X104609897Y-80150802D01*
X104717087Y-80361174D01*
X104777338Y-80444104D01*
X104777340Y-80444105D01*
X105476212Y-79745233D01*
X105487482Y-79787292D01*
X105559890Y-79912708D01*
X105662292Y-80015110D01*
X105787708Y-80087518D01*
X105829765Y-80098787D01*
X105130893Y-80797658D01*
X105213828Y-80857914D01*
X105424197Y-80965102D01*
X105648752Y-81038065D01*
X105648751Y-81038065D01*
X105881948Y-81075000D01*
X106118052Y-81075000D01*
X106351247Y-81038065D01*
X106575802Y-80965102D01*
X106786163Y-80857918D01*
X106786169Y-80857914D01*
X106869104Y-80797658D01*
X106869105Y-80797658D01*
X106170233Y-80098787D01*
X106212292Y-80087518D01*
X106337708Y-80015110D01*
X106440110Y-79912708D01*
X106512518Y-79787292D01*
X106523787Y-79745234D01*
X107222658Y-80444105D01*
X107222658Y-80444104D01*
X107282914Y-80361169D01*
X107282918Y-80361163D01*
X107390102Y-80150802D01*
X107463065Y-79926247D01*
X107500000Y-79693052D01*
X107500000Y-79456947D01*
X111000000Y-79456947D01*
X111000000Y-79693052D01*
X111036934Y-79926247D01*
X111109897Y-80150802D01*
X111217087Y-80361174D01*
X111277338Y-80444104D01*
X111277340Y-80444105D01*
X111976212Y-79745233D01*
X111987482Y-79787292D01*
X112059890Y-79912708D01*
X112162292Y-80015110D01*
X112287708Y-80087518D01*
X112329765Y-80098787D01*
X111630893Y-80797658D01*
X111713828Y-80857914D01*
X111924197Y-80965102D01*
X112148752Y-81038065D01*
X112148751Y-81038065D01*
X112381948Y-81075000D01*
X112618052Y-81075000D01*
X112851247Y-81038065D01*
X113075802Y-80965102D01*
X113286163Y-80857918D01*
X113286169Y-80857914D01*
X113369104Y-80797658D01*
X113369105Y-80797658D01*
X112670233Y-80098787D01*
X112712292Y-80087518D01*
X112837708Y-80015110D01*
X112940110Y-79912708D01*
X113012518Y-79787292D01*
X113023787Y-79745234D01*
X113722658Y-80444105D01*
X113722658Y-80444104D01*
X113782914Y-80361169D01*
X113782918Y-80361163D01*
X113890102Y-80150802D01*
X113963065Y-79926247D01*
X114000000Y-79693052D01*
X114000000Y-79456947D01*
X113963065Y-79223752D01*
X113890102Y-78999197D01*
X113782914Y-78788828D01*
X113722658Y-78705894D01*
X113722658Y-78705893D01*
X113023787Y-79404765D01*
X113012518Y-79362708D01*
X112940110Y-79237292D01*
X112837708Y-79134890D01*
X112712292Y-79062482D01*
X112670234Y-79051212D01*
X113369105Y-78352340D01*
X113369104Y-78352338D01*
X113286174Y-78292087D01*
X113075802Y-78184897D01*
X112851247Y-78111934D01*
X112851248Y-78111934D01*
X112618052Y-78075000D01*
X112381948Y-78075000D01*
X112148752Y-78111934D01*
X111924197Y-78184897D01*
X111713830Y-78292084D01*
X111630894Y-78352340D01*
X112329766Y-79051212D01*
X112287708Y-79062482D01*
X112162292Y-79134890D01*
X112059890Y-79237292D01*
X111987482Y-79362708D01*
X111976212Y-79404765D01*
X111277340Y-78705894D01*
X111217084Y-78788830D01*
X111109897Y-78999197D01*
X111036934Y-79223752D01*
X111000000Y-79456947D01*
X107500000Y-79456947D01*
X107463065Y-79223752D01*
X107390102Y-78999197D01*
X107282914Y-78788828D01*
X107222658Y-78705894D01*
X107222658Y-78705893D01*
X106523787Y-79404765D01*
X106512518Y-79362708D01*
X106440110Y-79237292D01*
X106337708Y-79134890D01*
X106212292Y-79062482D01*
X106170234Y-79051212D01*
X106869105Y-78352340D01*
X106869104Y-78352339D01*
X106786174Y-78292087D01*
X106575802Y-78184897D01*
X106351247Y-78111934D01*
X106351248Y-78111934D01*
X106118052Y-78075000D01*
X105881948Y-78075000D01*
X105648752Y-78111934D01*
X105424197Y-78184897D01*
X105213830Y-78292084D01*
X105130894Y-78352340D01*
X105829766Y-79051212D01*
X105787708Y-79062482D01*
X105662292Y-79134890D01*
X105559890Y-79237292D01*
X105487482Y-79362708D01*
X105476212Y-79404766D01*
X104777340Y-78705894D01*
X104717084Y-78788830D01*
X104609897Y-78999197D01*
X104536934Y-79223752D01*
X104500000Y-79456947D01*
X97500000Y-79456947D01*
X97500000Y-72209905D01*
X106218646Y-72209905D01*
X106530405Y-72476173D01*
X106886404Y-72734821D01*
X106886415Y-72734828D01*
X107261590Y-72964737D01*
X107261597Y-72964740D01*
X107653698Y-73164526D01*
X108060254Y-73332927D01*
X108478749Y-73468903D01*
X108478772Y-73468910D01*
X108906653Y-73571636D01*
X109341281Y-73640473D01*
X109779969Y-73674999D01*
X109779983Y-73675000D01*
X110220017Y-73675000D01*
X110220030Y-73674999D01*
X110658717Y-73640473D01*
X110658718Y-73640473D01*
X111093346Y-73571636D01*
X111521227Y-73468910D01*
X111521250Y-73468903D01*
X111939745Y-73332927D01*
X112346301Y-73164526D01*
X112738402Y-72964740D01*
X112738409Y-72964737D01*
X112970276Y-72822648D01*
X124199500Y-72822648D01*
X124199500Y-73027351D01*
X124231522Y-73229534D01*
X124294781Y-73424223D01*
X124387715Y-73606613D01*
X124508028Y-73772213D01*
X124652786Y-73916971D01*
X124807749Y-74029556D01*
X124818390Y-74037287D01*
X124899499Y-74078614D01*
X125000776Y-74130218D01*
X125000778Y-74130218D01*
X125000781Y-74130220D01*
X125075818Y-74154601D01*
X125195465Y-74193477D01*
X125296557Y-74209488D01*
X125397648Y-74225500D01*
X125397649Y-74225500D01*
X125602351Y-74225500D01*
X125602352Y-74225500D01*
X125804534Y-74193477D01*
X125999219Y-74130220D01*
X126181610Y-74037287D01*
X126274590Y-73969732D01*
X126347213Y-73916971D01*
X126347215Y-73916968D01*
X126347219Y-73916966D01*
X126491966Y-73772219D01*
X126491968Y-73772215D01*
X126491971Y-73772213D01*
X126587684Y-73640473D01*
X126612287Y-73606610D01*
X126705220Y-73424219D01*
X126768477Y-73229534D01*
X126800500Y-73027352D01*
X126800500Y-72822648D01*
X126768477Y-72620465D01*
X126705218Y-72425776D01*
X126671503Y-72359607D01*
X126612287Y-72243390D01*
X126587959Y-72209905D01*
X126491971Y-72077786D01*
X126347213Y-71933028D01*
X126181613Y-71812715D01*
X126181612Y-71812714D01*
X126181610Y-71812713D01*
X126124653Y-71783691D01*
X125999223Y-71719781D01*
X125804534Y-71656522D01*
X125629995Y-71628878D01*
X125602352Y-71624500D01*
X125397648Y-71624500D01*
X125373329Y-71628351D01*
X125195465Y-71656522D01*
X125000776Y-71719781D01*
X124818386Y-71812715D01*
X124652786Y-71933028D01*
X124508028Y-72077786D01*
X124387715Y-72243386D01*
X124294781Y-72425776D01*
X124231522Y-72620465D01*
X124199500Y-72822648D01*
X112970276Y-72822648D01*
X113113584Y-72734828D01*
X113113590Y-72734824D01*
X113137496Y-72717457D01*
X113137496Y-72717456D01*
X113469594Y-72476173D01*
X113781352Y-72209905D01*
X110000000Y-68428554D01*
X106218646Y-72209905D01*
X97500000Y-72209905D01*
X97500000Y-65477135D01*
X100649500Y-65477135D01*
X100649500Y-70672870D01*
X100649501Y-70672876D01*
X100655908Y-70732483D01*
X100706202Y-70867328D01*
X100706206Y-70867335D01*
X100792452Y-70982544D01*
X100792455Y-70982547D01*
X100907664Y-71068793D01*
X100907671Y-71068797D01*
X101042517Y-71119091D01*
X101042516Y-71119091D01*
X101049444Y-71119835D01*
X101102127Y-71125500D01*
X103697872Y-71125499D01*
X103757483Y-71119091D01*
X103892331Y-71068796D01*
X104007546Y-70982546D01*
X104093796Y-70867331D01*
X104144091Y-70732483D01*
X104150500Y-70672873D01*
X104150499Y-67854969D01*
X104400000Y-67854969D01*
X104400000Y-68295030D01*
X104434526Y-68733717D01*
X104434526Y-68733718D01*
X104503363Y-69168346D01*
X104606089Y-69596227D01*
X104606096Y-69596250D01*
X104742072Y-70014745D01*
X104910473Y-70421301D01*
X105110259Y-70813402D01*
X105110262Y-70813409D01*
X105340171Y-71188584D01*
X105340178Y-71188595D01*
X105598826Y-71544593D01*
X105598836Y-71544607D01*
X105865093Y-71856352D01*
X109646446Y-68075000D01*
X109646446Y-68074999D01*
X110353554Y-68074999D01*
X110353554Y-68075000D01*
X114134905Y-71856352D01*
X114401173Y-71544594D01*
X114659821Y-71188595D01*
X114659828Y-71188584D01*
X114889737Y-70813409D01*
X114889740Y-70813402D01*
X115089526Y-70421301D01*
X115257927Y-70014745D01*
X115393903Y-69596250D01*
X115393910Y-69596227D01*
X115496636Y-69168346D01*
X115565473Y-68733718D01*
X115565473Y-68733717D01*
X115599999Y-68295030D01*
X115600000Y-68295017D01*
X115600000Y-67854982D01*
X115599999Y-67854969D01*
X115565473Y-67416282D01*
X115565473Y-67416281D01*
X115496636Y-66981653D01*
X115393910Y-66553772D01*
X115393903Y-66553749D01*
X115257927Y-66135254D01*
X115089526Y-65728698D01*
X114889740Y-65336597D01*
X114889737Y-65336590D01*
X114659828Y-64961415D01*
X114659821Y-64961404D01*
X114401173Y-64605405D01*
X114134905Y-64293646D01*
X110353554Y-68074999D01*
X109646446Y-68074999D01*
X105865093Y-64293646D01*
X105598837Y-64605392D01*
X105598826Y-64605406D01*
X105340178Y-64961404D01*
X105340171Y-64961415D01*
X105110262Y-65336590D01*
X105110259Y-65336597D01*
X104910473Y-65728698D01*
X104742072Y-66135254D01*
X104606096Y-66553749D01*
X104606089Y-66553772D01*
X104503363Y-66981653D01*
X104434526Y-67416281D01*
X104434526Y-67416282D01*
X104400000Y-67854969D01*
X104150499Y-67854969D01*
X104150499Y-65477128D01*
X104144091Y-65417517D01*
X104113907Y-65336590D01*
X104093797Y-65282671D01*
X104093793Y-65282664D01*
X104007547Y-65167455D01*
X104007544Y-65167452D01*
X103892335Y-65081206D01*
X103892328Y-65081202D01*
X103757482Y-65030908D01*
X103757483Y-65030908D01*
X103697883Y-65024501D01*
X103697881Y-65024500D01*
X103697873Y-65024500D01*
X103697865Y-65024500D01*
X103124500Y-65024500D01*
X103057461Y-65004815D01*
X103011706Y-64952011D01*
X103000500Y-64900500D01*
X103000500Y-63940093D01*
X106218646Y-63940093D01*
X109999999Y-67721446D01*
X113781352Y-63940093D01*
X113469607Y-63673836D01*
X113469593Y-63673826D01*
X113113595Y-63415178D01*
X113113584Y-63415171D01*
X112738409Y-63185262D01*
X112738402Y-63185259D01*
X112346301Y-62985473D01*
X111939745Y-62817072D01*
X111521250Y-62681096D01*
X111521227Y-62681089D01*
X111093346Y-62578363D01*
X110658718Y-62509526D01*
X110220030Y-62475000D01*
X109779969Y-62475000D01*
X109341282Y-62509526D01*
X109341281Y-62509526D01*
X108906653Y-62578363D01*
X108478772Y-62681089D01*
X108478749Y-62681096D01*
X108060254Y-62817072D01*
X107653698Y-62985473D01*
X107261597Y-63185259D01*
X107261590Y-63185262D01*
X106886415Y-63415171D01*
X106886404Y-63415178D01*
X106530406Y-63673826D01*
X106530392Y-63673837D01*
X106218646Y-63940093D01*
X103000500Y-63940093D01*
X103000500Y-62475097D01*
X103020185Y-62408058D01*
X103036819Y-62387416D01*
X104562416Y-60861819D01*
X104623739Y-60828334D01*
X104650097Y-60825500D01*
X118400902Y-60825500D01*
X118467941Y-60845185D01*
X118513696Y-60897989D01*
X118523640Y-60967147D01*
X118494615Y-61030703D01*
X118488583Y-61037181D01*
X117119481Y-62406282D01*
X117119479Y-62406285D01*
X117069361Y-62493094D01*
X117069359Y-62493096D01*
X117040425Y-62543209D01*
X117040424Y-62543210D01*
X117040423Y-62543215D01*
X116999499Y-62695943D01*
X116999499Y-62695945D01*
X116999499Y-62864046D01*
X116999500Y-62864059D01*
X116999500Y-64900500D01*
X116979815Y-64967539D01*
X116927011Y-65013294D01*
X116875500Y-65024500D01*
X116302129Y-65024500D01*
X116302123Y-65024501D01*
X116242516Y-65030908D01*
X116107671Y-65081202D01*
X116107664Y-65081206D01*
X115992455Y-65167452D01*
X115992452Y-65167455D01*
X115906206Y-65282664D01*
X115906202Y-65282671D01*
X115855908Y-65417517D01*
X115849501Y-65477116D01*
X115849501Y-65477123D01*
X115849500Y-65477135D01*
X115849500Y-70672870D01*
X115849501Y-70672876D01*
X115855908Y-70732483D01*
X115906202Y-70867328D01*
X115906206Y-70867335D01*
X115992452Y-70982544D01*
X115992455Y-70982547D01*
X116107664Y-71068793D01*
X116107671Y-71068797D01*
X116242517Y-71119091D01*
X116242516Y-71119091D01*
X116249444Y-71119835D01*
X116302127Y-71125500D01*
X118897872Y-71125499D01*
X118957483Y-71119091D01*
X119092331Y-71068796D01*
X119207546Y-70982546D01*
X119293796Y-70867331D01*
X119344091Y-70732483D01*
X119350500Y-70672873D01*
X119350499Y-65477128D01*
X119344091Y-65417517D01*
X119313907Y-65336590D01*
X119293797Y-65282671D01*
X119293793Y-65282664D01*
X119207547Y-65167455D01*
X119207544Y-65167452D01*
X119092335Y-65081206D01*
X119092328Y-65081202D01*
X118957482Y-65030908D01*
X118957483Y-65030908D01*
X118897883Y-65024501D01*
X118897881Y-65024500D01*
X118897873Y-65024500D01*
X118897865Y-65024500D01*
X118324500Y-65024500D01*
X118257461Y-65004815D01*
X118211706Y-64952011D01*
X118200500Y-64900500D01*
X118200500Y-63075097D01*
X118220185Y-63008058D01*
X118236819Y-62987416D01*
X120362417Y-60861819D01*
X120423740Y-60828334D01*
X120450098Y-60825500D01*
X124270398Y-60825500D01*
X124337437Y-60845185D01*
X124380883Y-60893205D01*
X124387715Y-60906614D01*
X124508028Y-61072213D01*
X124652786Y-61216971D01*
X124807749Y-61329556D01*
X124818390Y-61337287D01*
X124934607Y-61396503D01*
X125000776Y-61430218D01*
X125000778Y-61430218D01*
X125000781Y-61430220D01*
X125105137Y-61464127D01*
X125195465Y-61493477D01*
X125296557Y-61509488D01*
X125397648Y-61525500D01*
X125397649Y-61525500D01*
X125602351Y-61525500D01*
X125602352Y-61525500D01*
X125804534Y-61493477D01*
X125999219Y-61430220D01*
X126181610Y-61337287D01*
X126274590Y-61269732D01*
X126347213Y-61216971D01*
X126347215Y-61216968D01*
X126347219Y-61216966D01*
X126491966Y-61072219D01*
X126491968Y-61072215D01*
X126491971Y-61072213D01*
X126612284Y-60906614D01*
X126612285Y-60906613D01*
X126612287Y-60906610D01*
X126619117Y-60893204D01*
X126667091Y-60842409D01*
X126729602Y-60825500D01*
X130770398Y-60825500D01*
X130837437Y-60845185D01*
X130880883Y-60893205D01*
X130887715Y-60906614D01*
X131008028Y-61072213D01*
X131152786Y-61216971D01*
X131307749Y-61329556D01*
X131318390Y-61337287D01*
X131434607Y-61396503D01*
X131500776Y-61430218D01*
X131500778Y-61430218D01*
X131500781Y-61430220D01*
X131605137Y-61464127D01*
X131695465Y-61493477D01*
X131796557Y-61509488D01*
X131897648Y-61525500D01*
X131897649Y-61525500D01*
X132102351Y-61525500D01*
X132102352Y-61525500D01*
X132304534Y-61493477D01*
X132499219Y-61430220D01*
X132681610Y-61337287D01*
X132774590Y-61269732D01*
X132847213Y-61216971D01*
X132847215Y-61216968D01*
X132847219Y-61216966D01*
X132991966Y-61072219D01*
X132991968Y-61072215D01*
X132991971Y-61072213D01*
X133112284Y-60906614D01*
X133112285Y-60906613D01*
X133112287Y-60906610D01*
X133119117Y-60893204D01*
X133167091Y-60842409D01*
X133229602Y-60825500D01*
X137270398Y-60825500D01*
X137337437Y-60845185D01*
X137380883Y-60893205D01*
X137387715Y-60906614D01*
X137508028Y-61072213D01*
X137652786Y-61216971D01*
X137807749Y-61329556D01*
X137818390Y-61337287D01*
X137934607Y-61396503D01*
X138000776Y-61430218D01*
X138000778Y-61430218D01*
X138000781Y-61430220D01*
X138105137Y-61464127D01*
X138195465Y-61493477D01*
X138296557Y-61509488D01*
X138397648Y-61525500D01*
X138397649Y-61525500D01*
X138602351Y-61525500D01*
X138602352Y-61525500D01*
X138804534Y-61493477D01*
X138999219Y-61430220D01*
X139181610Y-61337287D01*
X139274590Y-61269732D01*
X139347213Y-61216971D01*
X139347215Y-61216968D01*
X139347219Y-61216966D01*
X139491966Y-61072219D01*
X139491968Y-61072215D01*
X139491971Y-61072213D01*
X139612284Y-60906614D01*
X139612285Y-60906613D01*
X139612287Y-60906610D01*
X139619117Y-60893204D01*
X139667091Y-60842409D01*
X139729602Y-60825500D01*
X143270398Y-60825500D01*
X143337437Y-60845185D01*
X143380883Y-60893205D01*
X143387715Y-60906614D01*
X143508028Y-61072213D01*
X143652786Y-61216971D01*
X143807749Y-61329556D01*
X143818390Y-61337287D01*
X143934607Y-61396503D01*
X144000776Y-61430218D01*
X144000778Y-61430218D01*
X144000781Y-61430220D01*
X144105137Y-61464127D01*
X144195465Y-61493477D01*
X144296557Y-61509488D01*
X144397648Y-61525500D01*
X144397649Y-61525500D01*
X144602351Y-61525500D01*
X144602352Y-61525500D01*
X144804534Y-61493477D01*
X144999219Y-61430220D01*
X145181610Y-61337287D01*
X145274590Y-61269732D01*
X145347213Y-61216971D01*
X145347215Y-61216968D01*
X145347219Y-61216966D01*
X145491966Y-61072219D01*
X145491968Y-61072215D01*
X145491971Y-61072213D01*
X145544732Y-60999590D01*
X145612287Y-60906610D01*
X145705220Y-60724219D01*
X145768477Y-60529534D01*
X145800500Y-60327352D01*
X145800500Y-60122648D01*
X145768477Y-59920466D01*
X145705220Y-59725781D01*
X145705218Y-59725778D01*
X145705218Y-59725776D01*
X145671503Y-59659607D01*
X145612287Y-59543390D01*
X145604556Y-59532749D01*
X145491971Y-59377786D01*
X145347213Y-59233028D01*
X145181613Y-59112715D01*
X145181612Y-59112714D01*
X145181610Y-59112713D01*
X145124653Y-59083691D01*
X144999223Y-59019781D01*
X144804534Y-58956522D01*
X144629995Y-58928878D01*
X144602352Y-58924500D01*
X144397648Y-58924500D01*
X144373329Y-58928351D01*
X144195465Y-58956522D01*
X144000776Y-59019781D01*
X143818386Y-59112715D01*
X143652786Y-59233028D01*
X143508028Y-59377786D01*
X143387715Y-59543385D01*
X143380883Y-59556795D01*
X143332909Y-59607591D01*
X143270398Y-59624500D01*
X139729602Y-59624500D01*
X139662563Y-59604815D01*
X139619117Y-59556795D01*
X139612284Y-59543385D01*
X139491971Y-59377786D01*
X139347213Y-59233028D01*
X139181613Y-59112715D01*
X139181612Y-59112714D01*
X139181610Y-59112713D01*
X139124653Y-59083691D01*
X138999223Y-59019781D01*
X138804534Y-58956522D01*
X138629995Y-58928878D01*
X138602352Y-58924500D01*
X138397648Y-58924500D01*
X138373329Y-58928351D01*
X138195465Y-58956522D01*
X138000776Y-59019781D01*
X137818386Y-59112715D01*
X137652786Y-59233028D01*
X137508028Y-59377786D01*
X137387715Y-59543385D01*
X137380883Y-59556795D01*
X137332909Y-59607591D01*
X137270398Y-59624500D01*
X133229602Y-59624500D01*
X133162563Y-59604815D01*
X133119117Y-59556795D01*
X133112284Y-59543385D01*
X132991971Y-59377786D01*
X132847213Y-59233028D01*
X132681613Y-59112715D01*
X132681612Y-59112714D01*
X132681610Y-59112713D01*
X132624653Y-59083691D01*
X132499223Y-59019781D01*
X132304534Y-58956522D01*
X132129995Y-58928878D01*
X132102352Y-58924500D01*
X131897648Y-58924500D01*
X131873329Y-58928351D01*
X131695465Y-58956522D01*
X131500776Y-59019781D01*
X131318386Y-59112715D01*
X131152786Y-59233028D01*
X131008028Y-59377786D01*
X130887715Y-59543385D01*
X130880883Y-59556795D01*
X130832909Y-59607591D01*
X130770398Y-59624500D01*
X126729602Y-59624500D01*
X126662563Y-59604815D01*
X126619117Y-59556795D01*
X126612284Y-59543385D01*
X126491971Y-59377786D01*
X126347213Y-59233028D01*
X126181613Y-59112715D01*
X126181612Y-59112714D01*
X126181610Y-59112713D01*
X126124653Y-59083691D01*
X125999223Y-59019781D01*
X125804534Y-58956522D01*
X125629995Y-58928878D01*
X125602352Y-58924500D01*
X125397648Y-58924500D01*
X125373329Y-58928351D01*
X125195465Y-58956522D01*
X125000776Y-59019781D01*
X124818386Y-59112715D01*
X124652786Y-59233028D01*
X124508028Y-59377786D01*
X124387715Y-59543385D01*
X124380883Y-59556795D01*
X124332909Y-59607591D01*
X124270398Y-59624500D01*
X120229062Y-59624500D01*
X120229058Y-59624499D01*
X120070943Y-59624499D01*
X120070939Y-59624500D01*
X104270940Y-59624500D01*
X104230019Y-59635464D01*
X104230019Y-59635465D01*
X104192751Y-59645451D01*
X104118214Y-59665423D01*
X104118209Y-59665426D01*
X103981290Y-59744475D01*
X103981282Y-59744481D01*
X101919481Y-61806282D01*
X101919479Y-61806285D01*
X101869361Y-61893094D01*
X101869359Y-61893096D01*
X101840425Y-61943209D01*
X101840424Y-61943210D01*
X101840423Y-61943215D01*
X101799499Y-62095943D01*
X101799499Y-62095945D01*
X101799499Y-62264046D01*
X101799500Y-62264059D01*
X101799500Y-64900500D01*
X101779815Y-64967539D01*
X101727011Y-65013294D01*
X101675500Y-65024500D01*
X101102129Y-65024500D01*
X101102123Y-65024501D01*
X101042516Y-65030908D01*
X100907671Y-65081202D01*
X100907664Y-65081206D01*
X100792455Y-65167452D01*
X100792452Y-65167455D01*
X100706206Y-65282664D01*
X100706202Y-65282671D01*
X100655908Y-65417517D01*
X100649501Y-65477116D01*
X100649501Y-65477123D01*
X100649500Y-65477135D01*
X97500000Y-65477135D01*
X97500000Y-55124000D01*
X97519685Y-55056961D01*
X97572489Y-55011206D01*
X97624000Y-55000000D01*
X154948638Y-55000000D01*
X155015677Y-55019685D01*
G37*
%TD.AperFunction*%
%TD*%
M02*
